<svg xmlns="http://www.w3.org/2000/svg" xmlns:xlink="http://www.w3.org/1999/xlink" version="1.1" width="1920pt" height="1080pt" viewBox="0 0 1920 1080">
<defs>
<clipPath id="clip_0">
<path transform="matrix(1,0,0,-1,0,1080)" d="M0 6.532H1912.339V1080H0Z"/>
</clipPath>
</defs>
<g id="layer_1" data-name="">
<g clip-path="url(#clip_0)">
<path transform="matrix(1,0,0,-1,398.1962,501.4604)" d="M0 0H56.984C111.146 0 138.226-20.879 138.226-77.86V-113.405C138.226-163.053 119.042-192.391 67.137-192.391H0ZM0 178.845H66.574C116.222 178.845 130.325 154.584 130.325 108.323V81.805C130.325 24.256 106.067 11.284 51.339 11.284H0ZM150.636-113.405V-78.423C150.636-32.725 133.147-.568 86.322 6.202 130.891 12.972 142.74 39.49 142.74 83.499V108.886C142.74 161.917 124.121 190.692 66.574 190.692H-12.412V-204.237H67.137C126.943-204.237 150.636-169.261 150.636-113.405" fill="#ffffff"/>
<path transform="matrix(1,0,0,-1,0,1080)" d="M605.277 769.298H592.844V374.30299H605.277Z" fill="#ffffff"/>
<path transform="matrix(1,0,0,-1,0,1080)" d="M605.17 807.17H592.844V781H605.17Z" fill="#ffffff"/>
<path transform="matrix(1,0,0,-1,801.0237,693.8511)" d="M0 0H-138.226V182.796H-22.005V194.079H-138.226V371.236H0V383.082H-150.638V-11.847H0Z" fill="#ffffff"/>
<path transform="matrix(1,0,0,-1,856.8793,328.82258)" d="M0 0 141.043-376.875H156.278V18.054H144.431V-351.488L5.639 18.054H-11.849V-376.875H0Z" fill="#ffffff"/>
<path transform="matrix(1,0,0,-1,1389.2543,693.8511)" d="M0 0V383.082H-12.409V-11.847H132.585V0Z" fill="#ffffff"/>
<path transform="matrix(1,0,0,-1,1336.7199,587.58108)" d="M0 0H-272.268C-272.654 0-272.966 .313-272.966 .699V25.825C-272.966 26.211-272.654 26.524-272.268 26.524H0C.386 26.524 .699 26.211 .699 25.825V.699C.699 .313 .386 0 0 0" fill="#fb9014"/>
<path transform="matrix(1,0,0,-1,1246.1984,380.6452)" d="M0 0H-91.225C-91.423 0-91.584 .161-91.584 .36V20.54C-91.584 20.739-91.423 20.9-91.225 20.9H0C.199 20.9 .36 20.739 .36 20.54V.36C.36 .161 .199 0 0 0" fill="#fb9014"/>
<path transform="matrix(1,0,0,-1,1219.2339,443.07539)" d="M0 0H-37.296C-37.734 0-38.089 .355-38.089 .794V43.831C-38.089 44.269-37.734 44.624-37.296 44.624H0C.438 44.624 .794 44.269 .794 43.831V.794C.794 .355 .438 0 0 0" fill="#fb9014"/>
<path transform="matrix(1,0,0,-1,1206.6797,198.35388)" d="M0 0V-504.292C0-504.536-.198-504.734-.442-504.734H-11.745C-11.989-504.734-12.187-504.536-12.187-504.292V0C-12.187 .244-11.989 .442-11.745 .442H-.442C-.198 .442 0 .244 0 0" fill="#fb9014"/>
<path transform="matrix(1,0,0,-1,1367.9185,864.95)" d="M0 0-17.945-4.314C-18.333-4.407-18.722-4.168-18.816-3.781L-153.425 556.162C-153.518 556.55-153.279 556.94-152.892 557.033L-134.947 561.347C-134.559 561.44-134.169 561.201-134.076 560.814L.533 .871C.626 .483 .388 .093 0 0" fill="#fb9014"/>
<path transform="matrix(1,0,0,-1,1033.2537,864.95)" d="M0 0 17.945-4.314C18.333-4.407 18.722-4.168 18.816-3.781L153.425 556.162C153.518 556.55 153.279 556.94 152.892 557.033L134.947 561.347C134.559 561.44 134.169 561.201 134.076 560.814L-.533 .871C-.626 .483-.388 .093 0 0" fill="#fb9014"/>
</g>
</g>
</svg>
