<?xml version="1.0" encoding="utf-8"?>
<!-- Generator: Adobe Illustrator 28.1.0, SVG Export Plug-In . SVG Version: 6.00 Build 0)  -->
<svg version="1.1" id="Layer_1" xmlns="http://www.w3.org/2000/svg" xmlns:xlink="http://www.w3.org/1999/xlink" x="0px" y="0px"
	 viewBox="0 0 1920 1080" style="enable-background:new 0 0 1920 1080;" xml:space="preserve">
<style type="text/css">
	.st0{clip-path:url(#SVGID_00000023280798591860573730000013521286649832088474_);fill:#FFFFFF;}
	.st1{clip-path:url(#SVGID_00000053510770534436020340000013992923867082077060_);fill:#FFFFFF;}
	.st2{clip-path:url(#SVGID_00000166641664563473504320000010901620053577151639_);fill:#FFFFFF;}
	.st3{clip-path:url(#SVGID_00000106862491106412734720000009502301474350711460_);fill:#FFFFFF;}
	.st4{clip-path:url(#SVGID_00000107549303053608336540000013134147260919460026_);fill:#FFFFFF;}
	.st5{clip-path:url(#SVGID_00000137095463850398578380000009166952771573513116_);fill:#FFFFFF;}
	.st6{clip-path:url(#SVGID_00000093862443455751555970000016309699065972869254_);}
	.st7{fill:#FF9015;}
</style>
<g>
	<g>
		<defs>
			<rect id="SVGID_1_" y="0" width="1920" height="1080"/>
		</defs>
		<clipPath id="SVGID_00000062187981762960343220000008997267086238777484_">
			<use xlink:href="#SVGID_1_"  style="overflow:visible;"/>
		</clipPath>
		<path style="clip-path:url(#SVGID_00000062187981762960343220000008997267086238777484_);fill:#FFFFFF;" d="M556.5,621.4v-35
			c0-45.7-17.5-77.9-64.3-84.6c44.6-6.8,56.4-33.3,56.4-77.3v-25.4c0-53-18.6-81.8-76.2-81.8h-79v394.9H473
			C532.8,712.2,556.5,677.2,556.5,621.4 M405.9,329.1h66.6c49.7,0,63.8,24.3,63.8,70.5v26.5c0,57.5-24.3,70.5-79,70.5h-51.3
			L405.9,329.1L405.9,329.1z M405.9,508h57c54.2,0,81.2,20.9,81.2,77.9v35.5c0,49.7-19.2,79-71.1,79h-67.1L405.9,508L405.9,508z"/>
	</g>
	<g>
		<defs>
			<rect id="SVGID_00000101081877181996558790000017518250605447134604_" y="0" width="1920" height="1080"/>
		</defs>
		<clipPath id="SVGID_00000165939997333962949390000016548312130457659546_">
			<use xlink:href="#SVGID_00000101081877181996558790000017518250605447134604_"  style="overflow:visible;"/>
		</clipPath>
		
			<rect x="600.5" y="317.2" style="clip-path:url(#SVGID_00000165939997333962949390000016548312130457659546_);fill:#FFFFFF;" width="12.4" height="395"/>
	</g>
	<g>
		<defs>
			<rect id="SVGID_00000157992619527051841190000015573580117319007105_" y="0" width="1920" height="1080"/>
		</defs>
		<clipPath id="SVGID_00000138540277387647231480000006963654325145232290_">
			<use xlink:href="#SVGID_00000157992619527051841190000015573580117319007105_"  style="overflow:visible;"/>
		</clipPath>
		
			<rect x="600.5" y="279.4" style="clip-path:url(#SVGID_00000138540277387647231480000006963654325145232290_);fill:#FFFFFF;" width="12.3" height="26.2"/>
	</g>
	<g>
		<defs>
			<rect id="SVGID_00000182508212658975690450000012790290371211310469_" y="0" width="1920" height="1080"/>
		</defs>
		<clipPath id="SVGID_00000152230892822353002340000006044180327267417786_">
			<use xlink:href="#SVGID_00000182508212658975690450000012790290371211310469_"  style="overflow:visible;"/>
		</clipPath>
		<polygon style="clip-path:url(#SVGID_00000152230892822353002340000006044180327267417786_);fill:#FFFFFF;" points="808.7,700.4 
			670.5,700.4 670.5,517.6 786.7,517.6 786.7,506.3 670.5,506.3 670.5,329.1 808.7,329.1 808.7,317.3 658,317.3 658,712.2 
			808.7,712.2 		"/>
	</g>
	<g>
		<defs>
			<rect id="SVGID_00000150803351221187148960000001150325858440617371_" y="0" width="1920" height="1080"/>
		</defs>
		<clipPath id="SVGID_00000155840250763200557870000011048401774870802845_">
			<use xlink:href="#SVGID_00000150803351221187148960000001150325858440617371_"  style="overflow:visible;"/>
		</clipPath>
		<polygon style="clip-path:url(#SVGID_00000155840250763200557870000011048401774870802845_);fill:#FFFFFF;" points="864.5,335.4 
			1005.6,712.2 1020.8,712.2 1020.8,317.3 1009,317.3 1009,686.8 870.2,317.3 852.7,317.3 852.7,712.2 864.5,712.2 		"/>
	</g>
	<g>
		<defs>
			<rect id="SVGID_00000125560641285500619270000004984290172692033153_" y="0" width="1920" height="1080"/>
		</defs>
		<clipPath id="SVGID_00000140002650102450307470000006639948197303808696_">
			<use xlink:href="#SVGID_00000125560641285500619270000004984290172692033153_"  style="overflow:visible;"/>
		</clipPath>
		<polygon style="clip-path:url(#SVGID_00000140002650102450307470000006639948197303808696_);fill:#FFFFFF;" points="1396.9,700.4 
			1396.9,317.3 1384.5,317.3 1384.5,712.2 1529.5,712.2 1529.5,700.4 		"/>
	</g>
	<g>
		<defs>
			<rect id="SVGID_00000003818468114548520730000015212064429960966572_" y="0" width="1920" height="1080"/>
		</defs>
		<clipPath id="SVGID_00000050654615078834258780000011487730595226264500_">
			<use xlink:href="#SVGID_00000003818468114548520730000015212064429960966572_"  style="overflow:visible;"/>
		</clipPath>
		<g style="clip-path:url(#SVGID_00000050654615078834258780000011487730595226264500_);">
			<path class="st7" d="M1344.4,594.1h-272.3c-0.4,0-0.7-0.3-0.7-0.7v-25.1c0-0.4,0.3-0.7,0.7-0.7h272.3c0.4,0,0.7,0.3,0.7,0.7v25.1
				C1345.1,593.8,1344.8,594.1,1344.4,594.1"/>
			<path class="st7" d="M1253.9,387.2h-91.2c-0.2,0-0.4-0.2-0.4-0.4v-20.2c0-0.2,0.2-0.4,0.4-0.4h91.2c0.2,0,0.4,0.2,0.4,0.4v20.2
				C1254.2,387,1254.1,387.2,1253.9,387.2"/>
			<path class="st7" d="M1226.9,449.6h-37.3c-0.4,0-0.8-0.4-0.8-0.8v-43c0-0.4,0.4-0.8,0.8-0.8h37.3c0.4,0,0.8,0.4,0.8,0.8v43
				C1227.7,449.2,1227.3,449.6,1226.9,449.6"/>
			<path class="st7" d="M1214.3,204.9v504.3c0,0.2-0.2,0.4-0.4,0.4h-11.3c-0.2,0-0.4-0.2-0.4-0.4V204.9c0-0.2,0.2-0.4,0.4-0.4h11.3
				C1214.1,204.4,1214.3,204.6,1214.3,204.9"/>
			<path class="st7" d="M1375.6,871.5l-17.9,4.3c-0.4,0.1-0.8-0.2-0.9-0.5l-134.6-559.9c-0.1-0.4,0.2-0.8,0.5-0.9l17.9-4.3
				c0.4-0.1,0.8,0.1,0.9,0.5l134.6,559.9C1376.2,871,1376,871.4,1375.6,871.5"/>
			<path class="st7" d="M1040.9,871.5l17.9,4.3c0.4,0.1,0.8-0.2,0.9-0.5l134.6-559.9c0.1-0.4-0.2-0.8-0.5-0.9l-17.9-4.3
				c-0.4-0.1-0.8,0.1-0.9,0.5l-134.6,559.9C1040.3,871,1040.5,871.4,1040.9,871.5"/>
		</g>
	</g>
</g>
</svg>
